<svg width="200" height="200" viewBox="0 0 200 200" fill="none" xmlns="http://www.w3.org/2000/svg">
<rect width="200" height="200" rx="100" fill="#950000" fill-opacity="0.05"/>
<path d="M149 146.082C149 149.354 146.37 152 143.117 152H61.8828C58.6303 152 56 149.343 56 146.082V84.9369C56 81.665 58.6303 79.0189 61.8828 79.0189H143.117C146.37 79.0189 149 81.665 149 84.9369V146.082Z" fill="#950000"/>
<path d="M146.992 80.1608L107.788 51.592C104.874 49.462 100.137 49.462 97.223 51.592C97.223 51.592 58.0519 80.084 57.7135 80.4024C57.7135 80.4024 56.1091 82.2908 56.1091 83.8829L97.223 113.912C100.137 116.042 104.874 116.042 107.788 113.912L148.891 83.8829C148.64 82.4775 148.04 81.0282 146.992 80.1608Z" fill="#666666"/>
<path d="M61.8827 152H143.117C146.009 152 148.4 149.903 148.891 147.136L107.777 111.343C104.863 109.213 100.126 109.213 97.2121 111.343L56.1091 147.136C56.6003 149.892 58.9905 152 61.8827 152Z" fill="#950000"/>
<path d="M65.6372 63.0767V90.8439L97.2229 113.912C100.137 116.042 104.874 116.042 107.788 113.912L139.363 90.8439V63.0767H65.6372Z" fill="#950000"/>
<path d="M97.2229 108.148L65.6372 85.0797V90.844L97.2229 113.912C100.137 116.042 104.874 116.042 107.788 113.912L139.363 90.844V85.0797L107.788 108.148C104.863 110.278 100.137 110.278 97.2229 108.148Z" fill="#950000"/>
<path d="M118.102 75.5933H86.8873C86.036 75.5933 85.3484 74.9016 85.3484 74.0452C85.3484 73.1888 86.036 72.4971 86.8873 72.4971H118.102C118.953 72.4971 119.641 73.1888 119.641 74.0452C119.652 74.9016 118.964 75.5933 118.102 75.5933Z" fill="#E4F1FE"/>
<path d="M128.11 84.0257H76.8897C76.0384 84.0257 75.3508 83.334 75.3508 82.4776C75.3508 81.6212 76.0384 80.9294 76.8897 80.9294H128.11C128.961 80.9294 129.649 81.6212 129.649 82.4776C129.649 83.334 128.961 84.0257 128.11 84.0257Z" fill="#E4F1FE"/>
<path d="M128.11 90.8439H76.8897C76.0384 90.8439 75.3508 90.1522 75.3508 89.2958C75.3508 88.4394 76.0384 87.7477 76.8897 87.7477H128.11C128.961 87.7477 129.649 88.4394 129.649 89.2958C129.649 90.1522 128.961 90.8439 128.11 90.8439Z" fill="#E4F1FE"/>
<path d="M128.11 97.6623H76.8897C76.0384 97.6623 75.3508 96.9706 75.3508 96.1142C75.3508 95.2578 76.0384 94.566 76.8897 94.566H128.11C128.961 94.566 129.649 95.2578 129.649 96.1142C129.649 96.9706 128.961 97.6623 128.11 97.6623Z" fill="#E4F1FE"/>
<path d="M128.11 97.6623C128.961 97.6623 129.649 96.9706 129.649 96.1142C129.649 95.2578 128.961 94.566 128.11 94.566H126.397L122.151 97.6732H128.11V97.6623Z" fill="#E4F1FE"/>
<path d="M78.6142 94.5551H76.8897C76.0384 94.5551 75.3508 95.2468 75.3508 96.1032C75.3508 96.9596 76.0384 97.6513 76.8897 97.6513H82.8598L78.6142 94.5551Z" fill="#E4F1FE"/>
</svg>
