<svg width="20" height="20" viewBox="0 0 20 20" fill="none" xmlns="http://www.w3.org/2000/svg">
<path d="M4.16675 4.16666H15.0001C15.6631 4.16666 16.299 4.43006 16.7678 4.8989C17.2367 5.36774 17.5001 6.00362 17.5001 6.66666V14.1667C17.5001 14.8297 17.2367 15.4656 16.7678 15.9344C16.299 16.4033 15.6631 16.6667 15.0001 16.6667H4.16675C3.50371 16.6667 2.86782 16.4033 2.39898 15.9344C1.93014 15.4656 1.66675 14.8297 1.66675 14.1667V6.66666C1.66675 6.00362 1.93014 5.36774 2.39898 4.8989C2.86782 4.43006 3.50371 4.16666 4.16675 4.16666ZM4.16675 5C3.75008 5 3.38341 5.14166 3.10008 5.39166L9.58341 9.58333L16.0667 5.39166C15.7834 5.14166 15.4167 5 15.0001 5H4.16675ZM9.58341 10.5917L2.60841 6.06666C2.54175 6.25 2.50008 6.45833 2.50008 6.66666V14.1667C2.50008 14.6087 2.67568 15.0326 2.98824 15.3452C3.3008 15.6577 3.72472 15.8333 4.16675 15.8333H15.0001C15.4421 15.8333 15.866 15.6577 16.1786 15.3452C16.4912 15.0326 16.6667 14.6087 16.6667 14.1667V6.66666C16.6667 6.45833 16.6251 6.25 16.5584 6.06666L9.58341 10.5917Z" fill="#9F9F9F"/>
</svg>
