<svg width="200" height="200" viewBox="0 0 200 200" fill="none" xmlns="http://www.w3.org/2000/svg">
<rect width="200" height="200" rx="100" fill="#950000" fill-opacity="0.05"/>
<path d="M123.32 102.138C120.961 102.138 119.052 100.225 119.052 97.8661V75.1965C119.052 66.013 111.579 58.54 102.395 58.54H98.0324C88.8488 58.54 81.3758 66.013 81.3758 75.1965V97.8661C81.3758 100.225 79.4665 102.138 77.1037 102.138C74.7452 102.138 72.8315 100.225 72.8315 97.8661V75.1965C72.8359 61.3045 84.1404 50 98.0324 50H102.391C116.283 50 127.587 61.3045 127.587 75.1965V97.8661C127.587 100.225 125.678 102.138 123.32 102.138Z" fill="#31373F"/>
<path d="M102.391 50H100.209V58.54H102.391C111.574 58.54 119.047 66.013 119.047 75.1965V97.8661C119.047 100.225 120.961 102.138 123.315 102.138C125.674 102.138 127.587 100.225 127.587 97.8661V75.1965C127.587 61.3045 116.283 50 102.391 50Z" fill="#262A30"/>
<path d="M137.423 142.678C137.423 146.721 134.145 150 130.102 150H70.3218C66.2786 149.996 63 146.721 63 142.678V92.5961C63 88.5529 66.2786 85.2743 70.3218 85.2743H130.102C134.145 85.2743 137.423 88.5529 137.423 92.5961V142.678Z" fill="#B93131"/>
<path d="M130.101 85.2743H100.209V149.996H130.101C134.145 149.996 137.423 146.717 137.423 142.674V92.5961C137.423 88.5529 134.145 85.2743 130.101 85.2743Z" fill="#950000"/>
<path d="M127.86 125.382C127.86 126.942 126.594 128.207 125.035 128.207H75.3932C73.8295 128.207 72.5681 126.942 72.5681 125.382V109.888C72.5681 108.328 73.8338 107.063 75.3932 107.063H125.03C126.59 107.063 127.855 108.328 127.855 109.888V125.382H127.86Z" fill="#31373F"/>
<path d="M125.03 107.063H100.209V128.212H125.03C126.59 128.212 127.855 126.946 127.855 125.387V109.892C127.86 108.328 126.594 107.063 125.03 107.063Z" fill="#262A30"/>
<path d="M82.6285 118.03L81.946 117.637L82.6285 117.244C83.013 117.024 83.1425 116.536 82.9222 116.151C82.7019 115.767 82.2095 115.637 81.8294 115.858L81.1469 116.251V115.464C81.1469 115.024 80.7883 114.665 80.3477 114.665C79.9071 114.665 79.5486 115.024 79.5486 115.464V116.251L78.8661 115.858C78.4816 115.637 77.9935 115.767 77.7732 116.151C77.5529 116.536 77.6825 117.024 78.067 117.244L78.7495 117.637L78.067 118.03C77.6825 118.251 77.5529 118.739 77.7732 119.123C77.9935 119.508 78.486 119.637 78.8661 119.417L79.5486 119.024V119.81C79.5486 120.251 79.9071 120.609 80.3477 120.609C80.7883 120.609 81.1469 120.251 81.1469 119.81V119.024L81.8294 119.417C82.2138 119.637 82.7019 119.508 82.9222 119.123C83.1425 118.739 83.013 118.251 82.6285 118.03Z" fill="#E4F1FE"/>
<path d="M92.5594 118.03L91.8769 117.637L92.5594 117.244C92.9396 117.024 93.0735 116.536 92.8532 116.151C92.6329 115.767 92.1404 115.637 91.7603 115.858L91.0778 116.251V115.464C91.0778 115.024 90.7192 114.665 90.2786 114.665C89.838 114.665 89.4795 115.024 89.4795 115.464V116.251L88.797 115.858C88.4126 115.637 87.9244 115.767 87.7041 116.151C87.4838 116.536 87.6134 117.024 87.9979 117.244L88.6804 117.637L87.9979 118.03C87.6134 118.251 87.4838 118.739 87.7041 119.123C87.9244 119.508 88.4169 119.637 88.797 119.417L89.4795 119.024V119.81C89.4795 120.251 89.838 120.609 90.2786 120.609C90.7192 120.609 91.0778 120.251 91.0778 119.81V119.024L91.7603 119.417C92.1447 119.637 92.6329 119.508 92.8532 119.123C93.0735 118.739 92.9439 118.251 92.5594 118.03Z" fill="#E4F1FE"/>
<path d="M102.494 118.03L101.812 117.637L102.494 117.244C102.875 117.024 103.009 116.536 102.788 116.151C102.568 115.767 102.075 115.637 101.695 115.858L101.013 116.251V115.464C101.013 115.024 100.654 114.665 100.214 114.665C99.7731 114.665 99.4146 115.024 99.4146 115.464V116.251L98.7321 115.858C98.3519 115.637 97.8595 115.767 97.6392 116.151C97.4189 116.536 97.5485 117.024 97.9329 117.244L98.6154 117.637L97.9329 118.03C97.5485 118.251 97.4189 118.739 97.6392 119.123C97.8595 119.508 98.3519 119.637 98.7321 119.417L99.4146 119.024V119.81C99.4146 120.251 99.7731 120.609 100.214 120.609C100.654 120.609 101.013 120.251 101.013 119.81V119.024L101.691 119.417C102.075 119.637 102.564 119.508 102.784 119.123C103.009 118.739 102.879 118.251 102.494 118.03Z" fill="#E4F1FE"/>
<path d="M112.425 118.03L111.743 117.637L112.425 117.244C112.81 117.024 112.939 116.536 112.719 116.151C112.499 115.767 112.006 115.637 111.626 115.858L110.944 116.251V115.464C110.944 115.024 110.585 114.665 110.145 114.665C109.704 114.665 109.345 115.024 109.345 115.464V116.251L108.663 115.858C108.279 115.637 107.79 115.767 107.57 116.151C107.35 116.536 107.479 117.024 107.864 117.244L108.546 117.637L107.864 118.03C107.479 118.251 107.35 118.739 107.57 119.123C107.79 119.508 108.283 119.637 108.663 119.417L109.345 119.024V119.81C109.345 120.251 109.704 120.609 110.145 120.609C110.585 120.609 110.944 120.251 110.944 119.81V119.024L111.626 119.417C112.011 119.637 112.499 119.508 112.719 119.123C112.939 118.739 112.81 118.251 112.425 118.03Z" fill="#E4F1FE"/>
<path d="M122.361 118.03L121.678 117.637L122.361 117.244C122.745 117.024 122.875 116.536 122.654 116.151C122.434 115.767 121.942 115.637 121.562 115.858L120.879 116.251V115.464C120.879 115.024 120.521 114.665 120.08 114.665C119.639 114.665 119.281 115.024 119.281 115.464V116.251L118.598 115.858C118.218 115.637 117.726 115.767 117.505 116.151C117.285 116.536 117.415 117.024 117.799 117.244L118.482 117.637L117.799 118.03C117.419 118.251 117.285 118.739 117.505 119.123C117.726 119.508 118.218 119.637 118.598 119.417L119.281 119.024V119.81C119.281 120.251 119.639 120.609 120.08 120.609C120.521 120.609 120.879 120.251 120.879 119.81V119.024L121.562 119.417C121.946 119.637 122.434 119.508 122.654 119.123C122.875 118.739 122.741 118.251 122.361 118.03Z" fill="#E4F1FE"/>
</svg>
