<svg width="270" height="196" viewBox="0 0 270 196" fill="none" xmlns="http://www.w3.org/2000/svg">
<path d="M135 195.78C209.558 195.78 270 192.251 270 187.898C270 183.545 209.558 180.016 135 180.016C60.4416 180.016 0 183.545 0 187.898C0 192.251 60.4416 195.78 135 195.78Z" fill="#F5F5F5"/>
<path d="M213.992 0.00192396H191.321L175.307 183.295H197.978C201.16 183.234 204.209 182.01 206.551 179.856C208.893 177.701 210.366 174.764 210.692 171.598L224.68 11.6923C224.842 10.2024 224.685 8.69501 224.22 7.27049C223.754 5.84596 222.99 4.53704 221.979 3.43091C220.967 2.32478 219.732 1.44685 218.355 0.855583C216.978 0.264318 215.49 -0.026698 213.992 0.00192396Z" fill="#950000"/>
<path d="M209.369 0.00183671H132.64C129.458 0.0614389 126.407 1.28317 124.064 3.43666C121.721 5.59015 120.246 8.52657 119.919 11.6922L105.931 171.598C105.77 173.087 105.927 174.593 106.392 176.016C106.857 177.439 107.62 178.748 108.63 179.854C109.639 180.96 110.872 181.839 112.247 182.432C113.622 183.025 115.107 183.32 116.605 183.295H193.327C196.504 183.227 199.548 182.001 201.885 179.847C204.223 177.693 205.693 174.759 206.02 171.598L220.008 11.6922C220.17 10.2065 220.014 8.7033 219.551 7.28224C219.088 5.86119 218.329 4.55472 217.323 3.44939C216.317 2.34405 215.088 1.46509 213.716 0.870741C212.345 0.27639 210.863 -0.0197873 209.369 0.00183671Z" fill="#950000"/>
<path opacity="0.3" d="M209.369 0.00183671H132.64C129.458 0.0614389 126.407 1.28317 124.064 3.43666C121.721 5.59015 120.246 8.52657 119.919 11.6922L105.931 171.598C105.77 173.087 105.927 174.593 106.392 176.016C106.857 177.439 107.62 178.748 108.63 179.854C109.639 180.96 110.872 181.839 112.247 182.432C113.622 183.025 115.107 183.32 116.605 183.295H193.327C196.504 183.227 199.548 182.001 201.885 179.847C204.223 177.693 205.693 174.759 206.02 171.598L220.008 11.6922C220.17 10.2065 220.014 8.7033 219.551 7.28224C219.088 5.86119 218.329 4.55472 217.323 3.44939C216.317 2.34405 215.088 1.46509 213.716 0.870741C212.345 0.27639 210.863 -0.0197873 209.369 0.00183671Z" fill="white"/>
<path opacity="0.4" d="M209.042 3.74774H188.808C188.205 3.75267 187.617 3.93843 187.12 4.28102C186.624 4.62361 186.242 5.10726 186.023 5.66944C185.225 7.73448 183.83 9.51493 182.015 10.7836C180.201 12.0522 178.05 12.7516 175.836 12.7923H163.902C161.818 12.8343 159.784 12.1481 158.15 10.8517C156.517 9.5554 155.387 7.73014 154.955 5.69033C154.84 5.13844 154.535 4.64423 154.094 4.29327C153.653 3.94231 153.103 3.75672 152.539 3.76862H132.313C130.15 3.80686 128.076 4.63645 126.484 6.10042C124.892 7.5644 123.891 9.56122 123.672 11.7131L109.677 171.619C109.565 172.631 109.67 173.656 109.985 174.624C110.301 175.593 110.819 176.483 111.505 177.236C112.192 177.988 113.031 178.586 113.967 178.988C114.903 179.391 115.913 179.589 116.932 179.57H193.661C195.824 179.53 197.898 178.699 199.49 177.234C201.082 175.769 202.082 173.771 202.302 171.619L216.29 11.7131C216.404 10.7001 216.301 9.67446 215.987 8.70464C215.673 7.73482 215.155 6.84316 214.469 6.08922C213.783 5.33527 212.944 4.73642 212.008 4.33263C211.072 3.92885 210.061 3.72944 209.042 3.74774Z" fill="white"/>
<path d="M189.922 90.6355H136.225C135.856 90.6416 135.49 90.5691 135.151 90.4229C134.812 90.2767 134.508 90.0602 134.26 89.7876C134.011 89.515 133.823 89.1927 133.708 88.8419C133.593 88.4911 133.554 88.1199 133.594 87.7529L133.865 84.6754C133.945 83.8951 134.308 83.171 134.885 82.6399C135.462 82.1088 136.214 81.8075 136.998 81.7928H190.702C191.071 81.7868 191.437 81.8592 191.776 82.0054C192.115 82.1516 192.419 82.3681 192.668 82.6407C192.917 82.9133 193.105 83.2357 193.219 83.5864C193.334 83.9372 193.373 84.3084 193.334 84.6754L193.069 87.7529C192.987 88.535 192.622 89.2601 192.042 89.7913C191.462 90.3224 190.708 90.6227 189.922 90.6355Z" fill="white"/>
<path d="M188.766 103.865H135.063C134.694 103.871 134.328 103.798 133.989 103.652C133.651 103.506 133.347 103.289 133.099 103.016C132.85 102.744 132.663 102.421 132.549 102.07C132.435 101.72 132.397 101.349 132.438 100.982L132.702 97.9045C132.784 97.1248 133.147 96.4015 133.724 95.8707C134.301 95.3399 135.052 95.0381 135.835 95.022H189.539C189.908 95.0159 190.274 95.0884 190.613 95.2345C190.952 95.3807 191.256 95.5973 191.505 95.8698C191.754 96.1424 191.942 96.4648 192.056 96.8156C192.171 97.1664 192.21 97.5376 192.171 97.9045L191.899 100.982C191.818 101.762 191.455 102.485 190.878 103.016C190.301 103.547 189.55 103.848 188.766 103.865Z" fill="white"/>
<path opacity="0.1" d="M173.608 6.742C173.52 7.60849 173.116 8.41241 172.475 9.00143C171.833 9.59045 170.998 9.92366 170.127 9.9379C169.718 9.94527 169.311 9.86537 168.935 9.70351C168.559 9.54166 168.222 9.30156 167.946 8.9992C167.67 8.69684 167.462 8.33916 167.335 7.94996C167.208 7.56076 167.165 7.14897 167.21 6.742C167.298 5.87552 167.701 5.0716 168.343 4.48258C168.985 3.89356 169.82 3.56036 170.691 3.54612C171.1 3.53875 171.506 3.61865 171.882 3.7805C172.258 3.94236 172.596 4.18246 172.872 4.48482C173.148 4.78718 173.356 5.14486 173.483 5.53406C173.61 5.92326 173.653 6.33504 173.608 6.742Z" fill="black"/>
<path opacity="0.1" d="M172.16 6.7417C172.111 7.21471 171.89 7.65345 171.54 7.97532C171.19 8.29719 170.735 8.48 170.259 8.48934C170.035 8.4937 169.813 8.45021 169.607 8.36179C169.402 8.27337 169.217 8.14207 169.066 7.97664C168.915 7.81121 168.801 7.61547 168.732 7.4025C168.663 7.18954 168.64 6.96425 168.665 6.7417C168.712 6.26811 168.932 5.82852 169.283 5.50636C169.633 5.1842 170.09 5.0019 170.566 4.99406C170.789 4.99084 171.011 5.03508 171.216 5.12388C171.421 5.21267 171.605 5.34399 171.756 5.50917C171.907 5.67434 172.021 5.86962 172.09 6.08208C172.16 6.29455 172.184 6.51936 172.16 6.7417Z" fill="black"/>
<g opacity="0.8">
<path d="M199.593 12.0751C199.473 12.0768 199.354 12.0529 199.244 12.0052C199.133 11.9574 199.034 11.8867 198.953 11.7979C198.873 11.709 198.811 11.604 198.774 11.4898C198.737 11.3755 198.724 11.2547 198.737 11.1352L198.89 9.42233C198.916 9.16923 199.033 8.93435 199.221 8.76233C199.408 8.59032 199.652 8.49316 199.907 8.48933C200.026 8.48777 200.145 8.51145 200.254 8.55883C200.364 8.60622 200.463 8.67622 200.543 8.76429C200.624 8.85235 200.686 8.95649 200.723 9.06988C200.761 9.18328 200.775 9.30337 200.763 9.42233L200.61 11.1352C200.584 11.3889 200.467 11.6246 200.28 11.7978C200.092 11.9709 199.848 12.0696 199.593 12.0751Z" fill="white"/>
<path d="M207.085 12.0751C206.965 12.0768 206.846 12.0529 206.736 12.0051C206.625 11.9573 206.526 11.8867 206.445 11.7978C206.364 11.709 206.303 11.604 206.266 11.4897C206.229 11.3755 206.216 11.2546 206.229 11.1351L206.584 7.11764C206.609 6.86454 206.727 6.62966 206.915 6.45764C207.102 6.28563 207.346 6.18848 207.6 6.18464C207.72 6.18308 207.838 6.20677 207.948 6.25415C208.058 6.30153 208.156 6.37154 208.237 6.4596C208.318 6.54766 208.379 6.65179 208.417 6.76518C208.455 6.87858 208.469 6.99869 208.457 7.11764L208.102 11.1351C208.076 11.3889 207.959 11.6246 207.772 11.7978C207.584 11.9709 207.34 12.0696 207.085 12.0751Z" fill="white"/>
<path d="M203.339 12.0751C203.219 12.0767 203.1 12.0529 202.989 12.0051C202.879 11.9573 202.78 11.8866 202.699 11.7978C202.618 11.709 202.557 11.6039 202.52 11.4897C202.482 11.3755 202.47 11.2546 202.483 11.1351L202.733 8.27344C202.759 8.01849 202.877 7.78184 203.066 7.60852C203.255 7.4352 203.501 7.33731 203.757 7.33347C203.877 7.33167 203.996 7.3555 204.106 7.40336C204.216 7.45121 204.314 7.522 204.394 7.61098C204.475 7.69997 204.535 7.8051 204.572 7.91934C204.608 8.03358 204.62 8.15431 204.606 8.27344L204.356 11.1351C204.33 11.3889 204.213 11.6246 204.025 11.7977C203.838 11.9709 203.594 12.0695 203.339 12.0751Z" fill="white"/>
</g>
<g opacity="0.8">
<path d="M135.446 12.0752H130.739C130.671 12.0766 130.604 12.0635 130.542 12.0368C130.479 12.01 130.424 11.9702 130.378 11.9201C130.333 11.8699 130.298 11.8106 130.278 11.746C130.257 11.6815 130.25 11.6133 130.258 11.546L130.474 9.01853C130.49 8.87504 130.557 8.74206 130.663 8.64461C130.77 8.54716 130.908 8.49196 131.052 8.48937H135.759C135.827 8.4879 135.894 8.50099 135.956 8.52774C136.018 8.5545 136.074 8.5943 136.12 8.64446C136.165 8.69462 136.2 8.75398 136.22 8.81851C136.241 8.88304 136.247 8.95125 136.239 9.01853L136.017 11.546C136.004 11.6895 135.939 11.8233 135.834 11.9211C135.728 12.019 135.59 12.0739 135.446 12.0752Z" fill="white"/>
<path d="M137.625 11.3858C137.557 11.3871 137.489 11.374 137.427 11.3473C137.364 11.3206 137.308 11.2809 137.262 11.2309C137.216 11.1809 137.181 11.1217 137.16 11.0571C137.138 10.9926 137.131 10.9242 137.137 10.8566L137.242 9.70078C137.256 9.55671 137.322 9.42286 137.429 9.32512C137.536 9.22738 137.675 9.17269 137.82 9.17162C137.888 9.17015 137.955 9.18324 138.017 9.20999C138.079 9.23675 138.135 9.27655 138.181 9.32671C138.226 9.37688 138.26 9.43623 138.281 9.50076C138.302 9.56529 138.308 9.6335 138.3 9.70078L138.203 10.8566C138.188 11.0001 138.12 11.1331 138.014 11.2305C137.908 11.328 137.769 11.3832 137.625 11.3858Z" fill="white"/>
</g>
<path d="M181.074 70.3954C190.443 61.4261 191.378 47.1969 183.161 38.6136C174.944 30.0302 160.688 30.3431 151.318 39.3124C141.949 48.2817 141.015 62.5109 149.231 71.0942C157.448 79.6776 171.704 79.3647 181.074 70.3954Z" fill="white"/>
<path d="M166.277 53.9977C160.372 53.9977 155.38 56.2466 154.955 61.1275L154.482 66.5514H175.878L176.352 61.1275C176.776 56.2466 172.188 53.9977 166.277 53.9977Z" fill="#950000"/>
<path d="M166.471 51.7629C169.215 51.7629 170.482 49.5418 170.719 46.7985C170.955 44.0552 170.085 41.8341 167.342 41.8341C164.598 41.8341 163.338 44.0622 163.094 46.7985C162.851 49.5349 163.728 51.7629 166.471 51.7629Z" fill="#950000"/>
<path d="M187.471 86.0262C186.016 86.0262 184.783 86.5833 184.686 87.7878L184.568 89.1316H189.852L189.971 87.7878C190.068 86.5833 188.933 86.0262 187.471 86.0262Z" fill="#950000"/>
<path d="M187.52 85.4761C188.216 85.4761 188.508 84.9261 188.571 84.2507C188.634 83.5753 188.411 83.0253 187.736 83.0253C187.06 83.0253 186.747 83.5753 186.684 84.2507C186.622 84.9261 186.844 85.4761 187.52 85.4761Z" fill="#950000"/>
<path d="M171.206 117.094H150.318C149.752 117.104 149.189 116.994 148.669 116.77C148.149 116.546 147.682 116.214 147.3 115.796C146.918 115.377 146.629 114.882 146.453 114.344C146.277 113.806 146.218 113.236 146.28 112.673C146.403 111.475 146.961 110.365 147.847 109.55C148.734 108.736 149.887 108.274 151.091 108.251H171.979C172.545 108.242 173.107 108.353 173.626 108.578C174.146 108.802 174.613 109.134 174.994 109.552C175.376 109.97 175.665 110.464 175.841 111.002C176.018 111.54 176.078 112.11 176.017 112.673C175.895 113.87 175.338 114.982 174.451 115.797C173.564 116.611 172.41 117.073 171.206 117.094Z" fill="#950000"/>
<path d="M168.679 166.404H146.321C145.722 166.42 145.125 166.307 144.573 166.072C144.021 165.837 143.526 165.486 143.122 165.043C142.717 164.6 142.413 164.074 142.23 163.503C142.047 162.932 141.989 162.327 142.06 161.732L143.488 145.425C143.615 144.16 144.202 142.986 145.138 142.125C146.073 141.264 147.292 140.776 148.563 140.753H170.928C171.526 140.743 172.119 140.86 172.669 141.096C173.218 141.333 173.711 141.684 174.114 142.126C174.517 142.568 174.821 143.091 175.007 143.66C175.192 144.229 175.254 144.83 175.189 145.425L173.762 161.732C173.631 162.997 173.042 164.17 172.105 165.031C171.169 165.892 169.95 166.38 168.679 166.404Z" fill="#950000"/>
<g opacity="0.6">
<path d="M161.786 149.54C161.822 149.184 161.783 148.825 161.67 148.485C161.557 148.146 161.374 147.834 161.131 147.571C160.889 147.307 160.594 147.099 160.265 146.958C159.936 146.817 159.581 146.748 159.223 146.755C158.462 146.766 157.73 147.055 157.167 147.568C156.604 148.081 156.248 148.783 156.167 149.54C156.122 149.964 156.185 150.391 156.349 150.784C156.514 151.177 156.774 151.523 157.107 151.789L156.619 157.408C156.595 157.621 156.617 157.836 156.683 158.04C156.75 158.244 156.859 158.431 157.003 158.589C157.147 158.747 157.324 158.873 157.521 158.957C157.717 159.042 157.93 159.083 158.144 159.079C158.598 159.069 159.032 158.894 159.366 158.586C159.699 158.278 159.909 157.859 159.954 157.408L160.449 151.789C160.822 151.534 161.135 151.2 161.366 150.812C161.596 150.424 161.74 149.989 161.786 149.54Z" fill="white"/>
</g>
<path d="M171.123 144.151H168.24L168.936 136.081C169.058 134.961 168.94 133.828 168.59 132.757C168.24 131.686 167.667 130.702 166.908 129.87C166.148 129.037 165.221 128.376 164.187 127.93C163.152 127.483 162.035 127.262 160.908 127.28C158.514 127.327 156.22 128.248 154.458 129.869C152.696 131.49 151.587 133.699 151.342 136.081L150.645 144.151H147.763L148.459 136.081C148.783 132.92 150.253 129.988 152.592 127.836C154.93 125.685 157.975 124.465 161.152 124.405C162.647 124.379 164.131 124.672 165.504 125.264C166.877 125.856 168.109 126.733 169.117 127.837C170.125 128.942 170.887 130.248 171.352 131.669C171.816 133.09 171.973 134.594 171.812 136.081L171.123 144.151Z" fill="#950000"/>
<path d="M187.826 98.3851L187.917 97.5983C187.935 97.416 187.915 97.2317 187.858 97.0577C187.8 96.8836 187.707 96.7237 187.583 96.5883C187.46 96.4529 187.309 96.3451 187.141 96.272C186.973 96.1989 186.791 96.1621 186.608 96.164C186.218 96.1721 185.844 96.3222 185.557 96.5863C185.27 96.8504 185.089 97.2103 185.048 97.5983L184.978 98.3712C184.823 98.3755 184.674 98.4366 184.559 98.543C184.445 98.6494 184.374 98.7938 184.359 98.9491L184.178 101.038C184.169 101.111 184.175 101.185 184.198 101.255C184.22 101.325 184.257 101.39 184.307 101.444C184.357 101.498 184.418 101.541 184.485 101.57C184.553 101.598 184.626 101.611 184.7 101.609H187.569C187.724 101.606 187.873 101.547 187.987 101.441C188.101 101.336 188.173 101.192 188.188 101.038L188.369 98.9491C188.375 98.8753 188.366 98.8011 188.341 98.7313C188.316 98.6616 188.276 98.5979 188.225 98.5446C188.174 98.4913 188.111 98.4495 188.043 98.422C187.974 98.3945 187.9 98.3819 187.826 98.3851ZM186.524 96.533C186.662 96.5314 186.799 96.5589 186.926 96.6138C187.053 96.6686 187.167 96.7497 187.26 96.8515C187.353 96.9534 187.424 97.0738 187.468 97.2049C187.511 97.336 187.527 97.4748 187.513 97.6122L187.443 98.3851H185.285L185.354 97.6122C185.385 97.3209 185.52 97.0506 185.736 96.8519C185.951 96.6533 186.231 96.5399 186.524 96.533Z" fill="#950000"/>
<path d="M144.643 99.2134L143.641 99.0045C143.613 98.9988 143.586 98.9869 143.564 98.9695C143.541 98.9522 143.523 98.9299 143.51 98.9044C143.497 98.8789 143.491 98.8509 143.49 98.8224C143.49 98.7939 143.496 98.7657 143.508 98.74L143.926 97.7512C143.943 97.7085 143.945 97.6611 143.931 97.6172C143.917 97.5734 143.887 97.5361 143.848 97.5118C143.809 97.4876 143.762 97.4781 143.716 97.485C143.671 97.4918 143.629 97.5146 143.599 97.5493L142.84 98.3291C142.822 98.3523 142.798 98.3711 142.772 98.3839C142.745 98.3968 142.716 98.4035 142.687 98.4035C142.657 98.4035 142.628 98.3968 142.602 98.3839C142.575 98.3711 142.552 98.3523 142.534 98.3291L141.914 97.5493C141.782 97.3822 141.496 97.5493 141.545 97.7512L141.789 98.74C141.796 98.7688 141.797 98.7989 141.792 98.8282C141.787 98.8575 141.776 98.8854 141.759 98.9103C141.743 98.9351 141.722 98.9563 141.697 98.9725C141.672 98.9888 141.644 98.9996 141.614 99.0045L140.577 99.2134C140.354 99.2552 140.326 99.5685 140.542 99.6103L141.545 99.8192C141.573 99.8245 141.599 99.8363 141.622 99.8538C141.644 99.8712 141.663 99.8938 141.675 99.9196C141.687 99.9454 141.693 99.9737 141.692 100.002C141.691 100.031 141.684 100.059 141.67 100.084L141.266 101.079C141.249 101.122 141.247 101.17 141.262 101.213C141.276 101.257 141.305 101.295 141.345 101.319C141.384 101.343 141.43 101.353 141.476 101.346C141.522 101.339 141.563 101.316 141.594 101.281L142.353 100.502C142.372 100.48 142.396 100.464 142.422 100.452C142.448 100.441 142.477 100.435 142.506 100.435C142.534 100.435 142.563 100.441 142.589 100.452C142.616 100.464 142.639 100.48 142.659 100.502L143.279 101.281C143.411 101.448 143.696 101.281 143.641 101.079L143.397 100.091C143.387 100.032 143.4 99.9711 143.434 99.9216C143.467 99.8722 143.519 99.838 143.578 99.8261L144.615 99.6173C144.831 99.5685 144.859 99.2552 144.643 99.2134Z" fill="#263238"/>
<path d="M151.23 99.2134L150.228 99.0045C150.2 98.9988 150.173 98.9869 150.151 98.9695C150.128 98.9522 150.11 98.9299 150.097 98.9044C150.084 98.8789 150.077 98.8509 150.077 98.8224C150.077 98.7939 150.083 98.7657 150.095 98.74L150.513 97.7512C150.53 97.7085 150.532 97.6611 150.518 97.6172C150.503 97.5734 150.474 97.5361 150.435 97.5118C150.396 97.4876 150.349 97.4781 150.303 97.485C150.258 97.4918 150.216 97.5146 150.186 97.5493L149.427 98.3291C149.409 98.3523 149.385 98.3711 149.359 98.3839C149.332 98.3968 149.303 98.4035 149.274 98.4035C149.244 98.4035 149.215 98.3968 149.188 98.3839C149.162 98.3711 149.139 98.3523 149.12 98.3291L148.501 97.5493C148.368 97.3822 148.083 97.5493 148.139 97.7512L148.382 98.74C148.388 98.7693 148.389 98.7995 148.383 98.8288C148.377 98.8581 148.365 98.886 148.348 98.9107C148.331 98.9354 148.309 98.9564 148.284 98.9725C148.259 98.9887 148.231 98.9995 148.201 99.0045L147.164 99.2134C146.941 99.2552 146.913 99.5685 147.129 99.6103L148.132 99.8192C148.16 99.8249 148.186 99.8368 148.209 99.8542C148.231 99.8715 148.25 99.8938 148.262 99.9193C148.275 99.9448 148.282 99.9728 148.282 100.001C148.282 100.03 148.276 100.058 148.264 100.084L147.846 101.072C147.829 101.115 147.827 101.163 147.842 101.206C147.856 101.25 147.885 101.288 147.924 101.312C147.964 101.336 148.01 101.346 148.056 101.339C148.101 101.332 148.143 101.309 148.174 101.274L148.932 100.495C148.952 100.473 148.976 100.457 149.002 100.445C149.028 100.434 149.057 100.428 149.086 100.428C149.114 100.428 149.143 100.434 149.169 100.445C149.196 100.457 149.219 100.473 149.239 100.495L149.859 101.274C149.991 101.441 150.276 101.274 150.228 101.072L149.984 100.084C149.978 100.055 149.977 100.025 149.983 99.9963C149.988 99.9673 149.999 99.9398 150.016 99.9152C150.032 99.8906 150.053 99.8694 150.077 99.8529C150.102 99.8364 150.129 99.825 150.158 99.8192L151.195 99.6103C151.418 99.5685 151.446 99.2552 151.23 99.2134Z" fill="#263238"/>
<path d="M157.817 99.2136L156.821 99.0047C156.792 99.0003 156.765 98.9892 156.742 98.9721C156.718 98.955 156.699 98.9326 156.686 98.9067C156.673 98.8807 156.667 98.8521 156.667 98.8231C156.668 98.7941 156.675 98.7657 156.689 98.7401L157.107 97.7514C157.133 97.7071 157.141 97.6539 157.129 97.6037C157.117 97.5534 157.085 97.5101 157.04 97.4833C156.996 97.4565 156.943 97.4485 156.893 97.4609C156.842 97.4733 156.799 97.5052 156.772 97.5495L156.02 98.3293C156.001 98.3526 155.977 98.3713 155.95 98.3842C155.923 98.3971 155.894 98.4038 155.864 98.4038C155.834 98.4038 155.804 98.3971 155.777 98.3842C155.75 98.3713 155.726 98.3526 155.707 98.3293L155.087 97.5495C154.955 97.3824 154.67 97.5495 154.725 97.7514L154.969 98.7401C154.975 98.7689 154.975 98.7987 154.97 98.8276C154.964 98.8565 154.953 98.8841 154.937 98.9087C154.921 98.9333 154.9 98.9545 154.876 98.9709C154.851 98.9874 154.824 98.9989 154.795 99.0047L153.757 99.2136C153.535 99.2553 153.507 99.5687 153.723 99.6105L154.718 99.8193C154.746 99.825 154.772 99.837 154.795 99.8543C154.818 99.8717 154.836 99.8939 154.849 99.9194C154.862 99.9449 154.868 99.973 154.869 100.001C154.869 100.03 154.863 100.058 154.851 100.084L154.433 101.073C154.406 101.117 154.398 101.17 154.41 101.22C154.423 101.271 154.455 101.314 154.499 101.341C154.543 101.367 154.596 101.376 154.647 101.363C154.697 101.351 154.74 101.319 154.767 101.275L155.519 100.495C155.539 100.474 155.562 100.457 155.589 100.445C155.615 100.434 155.643 100.428 155.672 100.428C155.701 100.428 155.729 100.434 155.756 100.445C155.782 100.457 155.806 100.474 155.825 100.495L156.452 101.275C156.584 101.442 156.87 101.275 156.814 101.073L156.57 100.084C156.56 100.026 156.572 99.9661 156.605 99.9168C156.637 99.8676 156.687 99.8327 156.744 99.8193L157.782 99.6105C157.977 99.5687 158.033 99.2553 157.817 99.2136Z" fill="#263238"/>
<path d="M164.41 99.2134L163.408 99.0045C163.38 98.9988 163.354 98.9869 163.331 98.9695C163.308 98.9522 163.29 98.9299 163.277 98.9044C163.265 98.8789 163.258 98.8509 163.257 98.8224C163.257 98.7939 163.263 98.7657 163.276 98.74L163.693 97.7512C163.711 97.7085 163.712 97.6611 163.698 97.6172C163.684 97.5734 163.654 97.5361 163.615 97.5118C163.576 97.4876 163.529 97.4781 163.484 97.485C163.438 97.4918 163.396 97.5146 163.366 97.5493L162.607 98.3291C162.589 98.3523 162.566 98.3711 162.539 98.3839C162.513 98.3968 162.483 98.4035 162.454 98.4035C162.424 98.4035 162.395 98.3968 162.369 98.3839C162.342 98.3711 162.319 98.3523 162.301 98.3291L161.681 97.5493C161.549 97.3822 161.263 97.5493 161.312 97.7512L161.556 98.74C161.563 98.7688 161.564 98.7989 161.559 98.8282C161.554 98.8575 161.543 98.8854 161.526 98.9103C161.51 98.9351 161.489 98.9563 161.464 98.9725C161.439 98.9888 161.411 98.9996 161.382 99.0045L160.344 99.2134C160.121 99.2552 160.094 99.5685 160.344 99.6103L161.347 99.8192C161.375 99.8245 161.401 99.8363 161.424 99.8538C161.446 99.8712 161.465 99.8938 161.477 99.9196C161.489 99.9454 161.495 99.9737 161.494 100.002C161.493 100.031 161.486 100.059 161.472 100.084L161.061 101.072C161.044 101.115 161.042 101.163 161.057 101.206C161.071 101.25 161.1 101.288 161.14 101.312C161.179 101.336 161.225 101.346 161.271 101.339C161.317 101.332 161.358 101.309 161.389 101.274L162.148 100.495C162.167 100.473 162.191 100.457 162.217 100.445C162.244 100.434 162.272 100.428 162.301 100.428C162.329 100.428 162.358 100.434 162.384 100.445C162.411 100.457 162.434 100.473 162.454 100.495L163.074 101.274C163.206 101.441 163.491 101.274 163.436 101.072L163.192 100.084C163.182 100.025 163.195 99.9641 163.229 99.9147C163.263 99.8652 163.314 99.831 163.373 99.8192L164.41 99.6103C164.598 99.5685 164.626 99.2552 164.41 99.2134Z" fill="#263238"/>
<path d="M170.997 99.2134L169.995 99.0045C169.967 98.9988 169.94 98.9869 169.918 98.9695C169.895 98.9522 169.877 98.9299 169.864 98.9044C169.851 98.8789 169.845 98.8509 169.844 98.8224C169.844 98.7939 169.85 98.7657 169.862 98.74L170.28 97.7512C170.297 97.7085 170.299 97.6611 170.285 97.6172C170.271 97.5734 170.241 97.5361 170.202 97.5118C170.163 97.4876 170.116 97.4781 170.071 97.485C170.025 97.4918 169.983 97.5146 169.953 97.5493L169.194 98.3291C169.176 98.3523 169.152 98.3711 169.126 98.3839C169.099 98.3968 169.07 98.4035 169.041 98.4035C169.011 98.4035 168.982 98.3968 168.956 98.3839C168.929 98.3711 168.906 98.3523 168.888 98.3291L168.268 97.5493C168.136 97.3822 167.85 97.5493 167.906 97.7512L168.149 98.74C168.156 98.7693 168.156 98.7995 168.15 98.8288C168.144 98.8581 168.132 98.886 168.115 98.9107C168.098 98.9354 168.077 98.9564 168.051 98.9725C168.026 98.9887 167.998 98.9995 167.968 99.0045L166.931 99.2134C166.708 99.2552 166.68 99.5685 166.896 99.6103L167.899 99.8192C167.927 99.8249 167.953 99.8368 167.976 99.8542C167.998 99.8715 168.017 99.8938 168.029 99.9193C168.042 99.9448 168.049 99.9728 168.049 100.001C168.049 100.03 168.043 100.058 168.031 100.084L167.613 101.072C167.596 101.115 167.594 101.163 167.609 101.206C167.623 101.25 167.652 101.288 167.692 101.312C167.731 101.336 167.777 101.346 167.823 101.339C167.869 101.332 167.91 101.309 167.941 101.274L168.7 100.495C168.719 100.473 168.743 100.457 168.769 100.445C168.796 100.434 168.824 100.428 168.853 100.428C168.881 100.428 168.91 100.434 168.936 100.445C168.963 100.457 168.986 100.473 169.006 100.495L169.626 101.274C169.758 101.441 170.043 101.274 169.995 101.072L169.751 100.084C169.745 100.055 169.745 100.025 169.75 99.9963C169.755 99.9673 169.767 99.9398 169.783 99.9152C169.799 99.8906 169.82 99.8694 169.844 99.8529C169.869 99.8364 169.896 99.825 169.925 99.8192L170.962 99.6103C171.206 99.5685 171.206 99.2552 170.997 99.2134Z" fill="#263238"/>
<path d="M177.584 99.2136L176.581 99.0047C176.553 98.9994 176.527 98.9875 176.504 98.9701C176.482 98.9526 176.464 98.9301 176.451 98.9043C176.439 98.8785 176.433 98.8502 176.434 98.8216C176.435 98.7931 176.442 98.7652 176.456 98.7401L176.874 97.7514C176.887 97.7294 176.896 97.7051 176.9 97.6798C176.904 97.6544 176.902 97.6285 176.896 97.6036C176.89 97.5788 176.879 97.5553 176.864 97.5347C176.849 97.514 176.83 97.4966 176.808 97.4833C176.786 97.4701 176.761 97.4613 176.736 97.4574C176.711 97.4536 176.685 97.4547 176.66 97.4609C176.635 97.467 176.612 97.478 176.591 97.4932C176.57 97.5084 176.553 97.5275 176.54 97.5495L175.788 98.3293C175.769 98.3526 175.745 98.3713 175.718 98.3842C175.691 98.3971 175.661 98.4038 175.631 98.4038C175.601 98.4038 175.571 98.3971 175.544 98.3842C175.517 98.3713 175.493 98.3526 175.474 98.3293L174.855 97.5495C174.722 97.3824 174.437 97.5495 174.493 97.7514L174.736 98.7401C174.742 98.7689 174.743 98.7986 174.737 98.8276C174.732 98.8565 174.721 98.8841 174.704 98.9087C174.688 98.9333 174.667 98.9545 174.643 98.9709C174.619 98.9874 174.591 98.9989 174.562 99.0047L173.525 99.2136C173.302 99.2553 173.274 99.5687 173.49 99.6104L174.486 99.8193C174.514 99.825 174.54 99.837 174.562 99.8543C174.585 99.8717 174.603 99.8939 174.616 99.9194C174.629 99.9449 174.636 99.973 174.636 100.001C174.636 100.03 174.63 100.058 174.618 100.084L174.2 101.073C174.173 101.117 174.165 101.17 174.178 101.22C174.19 101.271 174.222 101.314 174.266 101.341C174.311 101.367 174.364 101.376 174.414 101.363C174.464 101.351 174.508 101.319 174.534 101.275L175.286 100.495C175.306 100.474 175.33 100.457 175.356 100.445C175.382 100.434 175.411 100.428 175.44 100.428C175.468 100.428 175.497 100.434 175.523 100.445C175.549 100.457 175.573 100.474 175.593 100.495L176.212 101.275C176.245 101.311 176.289 101.335 176.337 101.344C176.385 101.352 176.434 101.344 176.477 101.32C176.52 101.297 176.554 101.26 176.573 101.215C176.592 101.17 176.595 101.12 176.581 101.073L176.338 100.084C176.327 100.026 176.339 99.9661 176.372 99.9168C176.404 99.8676 176.454 99.8327 176.512 99.8193L177.549 99.6104C177.772 99.5687 177.8 99.2553 177.584 99.2136Z" fill="#263238"/>
<path d="M161.702 84.794H149.336C148.957 84.8005 148.593 84.9458 148.313 85.2023C148.033 85.4589 147.857 85.809 147.818 86.1865C147.798 86.3642 147.817 86.5441 147.872 86.7141C147.927 86.8841 148.019 87.0403 148.139 87.1722C148.26 87.3041 148.407 87.4086 148.572 87.4788C148.736 87.549 148.914 87.5832 149.093 87.5791H161.458C161.838 87.5726 162.202 87.4273 162.481 87.1708C162.761 86.9142 162.937 86.5641 162.976 86.1865C162.995 86.0091 162.976 85.8297 162.92 85.6602C162.864 85.4907 162.773 85.335 162.653 85.2033C162.532 85.0717 162.385 84.9671 162.221 84.8966C162.057 84.826 161.88 84.791 161.702 84.794Z" fill="#263238"/>
<path d="M174.263 84.7938H167.084C166.705 84.8005 166.342 84.946 166.064 85.2027C165.785 85.4594 165.611 85.8094 165.573 86.1864C165.553 86.3634 165.572 86.5427 165.626 86.7122C165.681 86.8817 165.772 87.0375 165.892 87.1693C166.012 87.3011 166.158 87.4058 166.322 87.4764C166.486 87.5471 166.662 87.582 166.84 87.5789H173.991C174.37 87.5722 174.733 87.4267 175.011 87.17C175.29 86.9133 175.465 86.5633 175.502 86.1864C175.522 86.0116 175.504 85.8348 175.451 85.6672C175.398 85.4997 175.31 85.3452 175.193 85.2139C175.076 85.0826 174.933 84.9773 174.772 84.9049C174.612 84.8325 174.438 84.7947 174.263 84.7938Z" fill="#263238"/>
<path d="M183.739 147.911C179.368 149.576 175.423 152.192 172.188 155.57C170.224 154.045 167.882 153.082 165.413 152.785L165.086 152.736L164.947 154.379L165.128 154.449C167.835 155.446 170.125 157.331 171.624 159.796L171.86 160.186L172.118 159.768C175.002 155.165 179.071 151.423 183.899 148.934L184.059 148.851L184.15 147.765L183.739 147.911Z" fill="#263238"/>
<path opacity="0.2" d="M121.52 10.822C120.633 12.3714 120.087 14.0925 119.919 15.87L109.551 134.389H141.635L148.083 109.679L145.959 84.961L152.407 60.2503L150.318 35.5396L156.765 10.822H121.52Z" fill="black"/>
<path d="M147.498 28.5769L153.945 3.85925H72.8089L66.3684 28.5769L68.4851 53.2875L62.0446 77.9982L64.1612 102.716L57.7207 127.426H138.85L145.298 102.716L143.174 77.9982L149.622 53.2875L147.498 28.5769Z" fill="#950000"/>
<path opacity="0.7" d="M147.498 28.5769L153.945 3.85925H72.8089L66.3684 28.5769L68.4851 53.2875L62.0446 77.9982L64.1612 102.716L57.7207 127.426H138.85L145.298 102.716L143.174 77.9982L149.622 53.2875L147.498 28.5769Z" fill="white"/>
<path opacity="0.5" d="M147.498 28.5769H66.3684L72.8089 3.85925H153.945L147.498 28.5769Z" fill="white"/>
<path opacity="0.5" d="M143.174 77.998H62.0447L68.4852 53.2874H149.622L143.174 77.998Z" fill="white"/>
<path opacity="0.5" d="M138.85 127.426H57.7139L64.1613 102.716H145.298L138.85 127.426Z" fill="white"/>
<path opacity="0.2" d="M136.643 38.9027C135.811 39.1433 134.947 39.2606 134.081 39.2508C132.906 39.3028 131.736 39.0637 130.676 38.5546C130.484 38.4409 130.265 38.3808 130.042 38.3805C129.838 38.3833 129.637 38.4359 129.458 38.5337H129.416C129.105 38.7082 128.772 38.8417 128.427 38.9306C127.648 39.1362 126.845 39.2369 126.039 39.2299C125.795 39.2299 125.558 39.2299 125.343 39.2299C124.717 39.1898 124.098 39.0801 123.497 38.9027C123.409 38.8764 123.318 38.8601 123.226 38.854C123.073 38.8415 122.919 38.8608 122.773 38.9107C122.628 38.9607 122.495 39.0401 122.382 39.1441C122.268 39.2481 122.178 39.3743 122.116 39.5149C122.054 39.6555 122.022 39.8074 122.021 39.961V40.713H90.4385C89.8583 40.713 89.2837 40.8274 88.7476 41.0497C88.2116 41.272 87.7247 41.5978 87.3147 42.0084C86.9047 42.419 86.5796 42.9065 86.3582 43.4429C86.1368 43.9793 86.0233 44.554 86.0242 45.1343V49.5835C86.0224 50.1644 86.1352 50.7399 86.3562 51.2771C86.5772 51.8143 86.9021 52.3025 87.3122 52.7139C87.7223 53.1253 88.2095 53.4517 88.746 53.6744C89.2825 53.8971 89.8577 54.0118 90.4385 54.0118H126.317H126.554C126.937 54.3321 127.341 54.6523 127.773 54.9796C128.204 55.3068 128.817 55.7594 129.381 56.1633C129.573 56.3026 129.805 56.3776 130.042 56.3776C130.28 56.3776 130.511 56.3026 130.704 56.1633C135.216 52.8908 138.112 50.6349 138.112 44.438V39.9819C138.114 39.8037 138.074 39.6276 137.995 39.4681C137.915 39.3086 137.799 39.1703 137.655 39.0648C137.511 38.9593 137.345 38.8896 137.169 38.8614C136.993 38.8332 136.812 38.8473 136.643 38.9027Z" fill="black"/>
<path d="M125.628 38.2689H89.7563C87.3145 38.2689 85.335 40.2484 85.335 42.6902V47.1394C85.335 49.5812 87.3145 51.5607 89.7563 51.5607H125.628C128.07 51.5607 130.049 49.5812 130.049 47.1394V42.6902C130.049 40.2484 128.07 38.2689 125.628 38.2689Z" fill="#950000"/>
<path d="M133.391 36.7998C132.217 36.8501 131.047 36.611 129.987 36.1035C129.798 35.9878 129.581 35.9265 129.36 35.9265C129.139 35.9265 128.922 35.9878 128.733 36.1035C127.67 36.6118 126.499 36.851 125.322 36.7998C124.455 36.8091 123.592 36.6918 122.759 36.4517C122.592 36.3953 122.413 36.3796 122.238 36.4061C122.063 36.4325 121.897 36.5002 121.753 36.6037C121.61 36.7071 121.493 36.8433 121.412 37.0009C121.332 37.1585 121.29 37.333 121.29 37.51V41.9662C121.29 48.1699 124.187 50.4258 128.699 53.6983C128.891 53.8376 129.123 53.9126 129.36 53.9126C129.598 53.9126 129.829 53.8376 130.022 53.6983C134.533 50.4258 137.43 48.1699 137.43 41.9662V37.51C137.429 37.3328 137.386 37.1582 137.305 37.0007C137.224 36.8432 137.106 36.7072 136.962 36.6039C136.818 36.5006 136.651 36.433 136.476 36.4065C136.301 36.3801 136.122 36.3955 135.954 36.4517C135.121 36.6923 134.258 36.8096 133.391 36.7998Z" fill="#950000"/>
<path opacity="0.3" d="M133.391 36.7998C132.217 36.8501 131.047 36.611 129.987 36.1035C129.798 35.9878 129.581 35.9265 129.36 35.9265C129.139 35.9265 128.922 35.9878 128.733 36.1035C127.67 36.6118 126.499 36.851 125.322 36.7998C124.455 36.8091 123.592 36.6918 122.759 36.4517C122.592 36.3953 122.413 36.3796 122.238 36.4061C122.063 36.4325 121.897 36.5002 121.753 36.6037C121.61 36.7071 121.493 36.8433 121.412 37.0009C121.332 37.1585 121.29 37.333 121.29 37.51V41.9662C121.29 48.1699 124.187 50.4258 128.699 53.6983C128.891 53.8376 129.123 53.9126 129.36 53.9126C129.598 53.9126 129.829 53.8376 130.022 53.6983C134.533 50.4258 137.43 48.1699 137.43 41.9662V37.51C137.429 37.3328 137.386 37.1582 137.305 37.0007C137.224 36.8432 137.106 36.7072 136.962 36.6039C136.818 36.5006 136.651 36.433 136.476 36.4065C136.301 36.3801 136.122 36.3955 135.954 36.4517C135.121 36.6923 134.258 36.8096 133.391 36.7998Z" fill="white"/>
<path opacity="0.2" d="M128.733 36.0895C127.67 36.5978 126.499 36.8369 125.322 36.7857C124.455 36.7945 123.592 36.6772 122.759 36.4376C122.592 36.3812 122.413 36.3656 122.238 36.392C122.063 36.4184 121.897 36.4862 121.753 36.5896C121.61 36.6931 121.493 36.8292 121.412 36.9868C121.332 37.1444 121.29 37.319 121.29 37.4959V41.9521C121.29 48.1559 124.187 50.4118 128.699 53.6842C128.901 53.8308 129.145 53.9067 129.395 53.9001V35.9084C129.162 35.9038 128.932 35.9667 128.733 36.0895Z" fill="white"/>
<path d="M135.829 40.7547C133.114 41.818 130.697 43.5211 128.782 45.7191C127.447 44.7347 125.882 44.1091 124.236 43.9018H124.02V44.9671L124.138 45.0089C125.969 45.6696 127.547 46.887 128.65 48.4902L128.824 48.7409L128.97 48.4694C130.571 45.4947 133.009 43.0546 135.982 41.4509L136.086 41.4022V40.7059L135.829 40.7547Z" fill="#263238"/>
<path d="M152.511 10.815H149.434C149.038 10.8223 148.645 10.7452 148.281 10.5887C147.917 10.4321 147.591 10.1999 147.324 9.90729C147.057 9.61472 146.856 9.26861 146.733 8.89205C146.611 8.51548 146.57 8.11712 146.614 7.72354L146.885 4.64602C146.969 3.80904 147.357 3.03185 147.975 2.46197C148.594 1.89209 149.4 1.56919 150.241 1.55457H153.319C153.715 1.54621 154.109 1.62262 154.474 1.7787C154.838 1.93478 155.165 2.16693 155.433 2.45961C155.7 2.75229 155.902 3.09875 156.025 3.47581C156.148 3.85287 156.189 4.25184 156.146 4.64602L155.874 7.72354C155.78 8.55768 155.388 9.3299 154.77 9.89796C154.153 10.466 153.35 10.7917 152.511 10.815Z" fill="#950000"/>
<path d="M153.792 4.63918L153.124 3.90112L151.439 5.44685L150.032 3.90112L149.232 4.63918L150.645 6.1849L148.967 7.73061L149.635 8.4617L151.313 6.91598L152.727 8.4617L153.521 7.73061L152.107 6.1849L153.792 4.63918Z" fill="white"/>
<path d="M83.7335 37.3638C85.516 39.3064 87.2149 41.3186 88.9068 43.3447C90.5988 45.3709 92.235 47.4388 93.8643 49.5137C93.9339 49.6042 93.9061 49.5694 93.92 49.5972C93.9339 49.6251 93.92 49.6321 93.92 49.639C93.9322 49.6648 93.9486 49.6884 93.9687 49.7087C94.0281 49.793 94.1035 49.8647 94.1908 49.9197C94.278 49.9747 94.3753 50.0118 94.477 50.0289C94.5556 50.0395 94.6352 50.0395 94.7137 50.0289C94.7554 50.0322 94.7974 50.0322 94.8391 50.0289H94.9017C94.9365 50.0289 94.9017 50.0289 95.0131 49.9872L96.7538 49.0402C99.0933 47.8009 101.454 46.5894 103.891 45.5032L105.931 48.0306C103.967 49.834 101.92 52.0969 99.8522 53.754L98.2926 54.9794C98.1957 55.0585 98.0933 55.1307 97.9862 55.1953C97.868 55.2793 97.7448 55.3561 97.6172 55.425C97.3651 55.5702 97.1047 55.7004 96.8374 55.815C96.2979 56.0416 95.7316 56.1984 95.1524 56.2815C93.981 56.4534 92.7852 56.3339 91.671 55.9333C91.1043 55.7321 90.566 55.4583 90.0696 55.1187C89.819 54.9516 89.5822 54.7566 89.3733 54.5686C89.255 54.4711 89.1575 54.3597 89.0461 54.2553L88.7676 53.9768C86.9225 52.0829 85.1052 50.1752 83.3227 48.2326C81.5403 46.29 79.7787 44.3334 78.0938 42.3003L83.7335 37.3638Z" fill="#9E2015"/>
<path d="M102.971 47.0349L104.594 41.8198L108.869 43.9504C108.869 43.9504 108.242 47.7521 105.137 48.4135L102.971 47.0349Z" fill="#9E2015"/>
<path d="M106.299 40.3787L110.157 41.437L108.862 43.9505L104.587 41.8199L106.299 40.3787Z" fill="#9E2015"/>
<path d="M61.2579 38.7843C60.7984 40.9984 60.2274 43.1917 59.6356 45.378C59.0438 47.5643 58.3962 49.7297 57.7208 51.8951L57.4702 52.7097L57.3449 53.1135C57.328 53.1717 57.3047 53.2278 57.2752 53.2807C57.1958 53.5046 57.1512 53.7394 57.1429 53.9769C57.1282 54.4828 57.2692 54.9811 57.5468 55.4043C57.6837 55.5899 57.8351 55.7645 57.9994 55.9265L58.5773 56.5601L59.7191 57.8343C60.4642 58.6976 61.2161 59.561 61.9263 60.4662L59.4963 63.2512C58.4937 62.6803 57.5329 62.0606 56.572 61.4479L55.1446 60.501L54.4484 60.0206C54.2116 59.8534 54.0167 59.742 53.6337 59.4287C52.2714 58.2677 51.3314 56.6887 50.9601 54.9378C50.7732 54.0452 50.7285 53.1288 50.8278 52.2223C50.8278 51.9995 50.8974 51.7489 50.9322 51.526L51.0088 51.1083L51.155 50.2728C51.5449 48.0377 51.9627 45.8097 52.4292 43.5955C52.8957 41.3814 53.397 39.1742 53.9888 36.9949L61.2579 38.7843Z" fill="#9E2015"/>
<path d="M59.5449 60.2432L62.4136 58.774L63.6808 63.6479C63.6808 63.6479 61.3761 64.5322 59.5937 63.3973L59.5449 60.2432Z" fill="#9E2015"/>
<path d="M66.3825 57.2074L66.5148 61.6914L63.305 63.7872L62.1909 58.8645L66.3825 57.2074Z" fill="#9E2015"/>
<path d="M75.775 15.7655C75.8446 16.1067 76.0883 16.3504 76.3111 16.3086C76.5339 16.2668 76.6662 15.9466 76.5966 15.6123C76.5269 15.2781 76.2833 15.0275 76.0604 15.0693C75.8376 15.111 75.7053 15.4383 75.775 15.7655Z" fill="#263238"/>
<path d="M76.0535 16.3573C76.6803 17.3284 77.437 18.2092 78.3024 18.9753C78.1009 19.1923 77.8545 19.3627 77.5803 19.4746C77.3061 19.5864 77.0107 19.637 76.7149 19.6228L76.0535 16.3573Z" fill="#A02724"/>
<path d="M74.1248 14.1083C74.0847 14.1079 74.0456 14.0959 74.0121 14.0737C73.9787 14.0516 73.9523 14.0203 73.9361 13.9836C73.92 13.9469 73.9148 13.9063 73.921 13.8667C73.9273 13.8271 73.9449 13.7901 73.9717 13.7602C74.1897 13.5136 74.4628 13.3219 74.769 13.2009C75.0751 13.0799 75.4055 13.033 75.7332 13.0639C75.7602 13.069 75.7859 13.0793 75.8089 13.0942C75.8319 13.1092 75.8517 13.1285 75.8673 13.1512C75.8828 13.1738 75.8937 13.1993 75.8994 13.2261C75.905 13.253 75.9054 13.2807 75.9003 13.3076C75.8961 13.3343 75.8866 13.3599 75.8724 13.3829C75.8581 13.4058 75.8394 13.4257 75.8173 13.4413C75.7952 13.4568 75.7702 13.4678 75.7438 13.4736C75.7174 13.4793 75.6902 13.4797 75.6636 13.4747C75.4039 13.4498 75.142 13.4874 74.8997 13.5843C74.6575 13.6812 74.4419 13.8346 74.2711 14.0318C74.2339 14.0751 74.1816 14.1025 74.1248 14.1083Z" fill="#263238"/>
<path d="M65.7348 20.6185C66.5007 23.8144 67.2736 29.6701 64.5303 31.7937C64.5303 31.7937 65.6025 35.0383 72.8855 35.0383C80.8926 35.0383 76.715 32.9495 76.715 32.9495C72.3424 32.1 72.4538 28.3054 73.2337 25.8197L65.7348 20.6185Z" fill="#9E2015"/>
<path d="M63.6739 32.3855C63.2004 31.5013 62.6712 30.4847 63.7574 30.1644C64.955 29.8163 72.6349 29.1688 74.8978 29.8233C74.2015 31.0557 75.3782 32.6083 75.3782 32.6083L63.6739 32.3855Z" fill="#263238"/>
<path d="M70.0378 181.791H75.058L75.5593 171.682H70.5322L70.0378 181.791Z" fill="#9E2015"/>
<path d="M38.1555 180.399L43.2453 180.67L46.3367 170.707L41.247 170.435L38.1555 180.399Z" fill="#9E2015"/>
<path d="M43.0921 180.267L38.2948 179.229C38.2108 179.21 38.1228 179.22 38.0454 179.258C37.9681 179.296 37.9062 179.36 37.8701 179.438L36.206 183.052C36.165 183.139 36.1447 183.235 36.1466 183.332C36.1485 183.429 36.1726 183.524 36.2169 183.61C36.2613 183.696 36.3248 183.771 36.4026 183.829C36.4803 183.886 36.5703 183.925 36.6655 183.943C38.3435 184.277 39.1791 184.354 41.2888 184.813C42.5838 185.092 45.5151 185.809 47.3045 186.206C49.094 186.603 49.7136 184.876 49.0174 184.556C45.8842 183.128 44.5752 181.868 43.7257 180.691C43.5733 180.477 43.348 180.326 43.0921 180.267Z" fill="#263238"/>
<path d="M74.7934 181.283H70.0239C69.9377 181.284 69.8543 181.314 69.7874 181.369C69.7204 181.423 69.6737 181.498 69.6549 181.582L68.7915 185.461C68.7693 185.555 68.7687 185.652 68.79 185.746C68.8112 185.841 68.8537 185.929 68.9141 186.004C68.9746 186.079 69.0514 186.14 69.1388 186.181C69.2261 186.222 69.3217 186.242 69.4182 186.241C71.138 186.241 73.5958 186.108 75.7891 186.108C78.3165 186.108 80.4959 186.247 83.448 186.247C85.2375 186.247 85.7388 184.437 84.9868 184.27C81.5681 183.525 78.783 183.442 75.8308 181.624C75.5223 181.419 75.1637 181.301 74.7934 181.283Z" fill="#263238"/>
<path d="M55.43 33.2699C51.6423 35.0732 50.6118 46.0046 50.6118 46.0046L59.9906 50.3355C61.5759 47.6615 62.4396 44.6217 62.4972 41.5137C62.6852 35.8669 59.3082 31.4526 55.43 33.2699Z" fill="#263238"/>
<path opacity="0.4" d="M60.4988 40.0098C58.8068 42.6417 58.967 46.7079 59.5519 50.1405L59.9696 50.3355C61.5534 47.6609 62.417 44.6215 62.4762 41.5137C62.4762 41.1795 62.4762 40.8174 62.4762 40.5181L60.4988 40.0098Z" fill="black"/>
<path d="M81.6027 33.0051C81.6027 33.0051 86.2538 38.255 81.8603 70.743H58.5144C58.3542 67.1572 60.6032 49.6738 57.1218 32.7823C59.702 32.2859 62.3115 31.9557 64.934 31.7936C68.2409 31.6054 71.5559 31.6054 74.8628 31.7936C77.1372 32.0239 79.3905 32.429 81.6027 33.0051Z" fill="#950000"/>
<path opacity="0.6" d="M81.6027 33.0051C81.6027 33.0051 86.2538 38.255 81.8603 70.743H58.5144C58.3542 67.1572 60.6032 49.6738 57.1218 32.7823C59.702 32.2859 62.3115 31.9557 64.934 31.7936C68.2409 31.6054 71.5559 31.6054 74.8628 31.7936C77.1372 32.0239 79.3905 32.429 81.6027 33.0051Z" fill="#FAFAFA"/>
<path opacity="0.2" d="M83.6429 42.934L83.5593 42.8574L78.9152 40.3787C78.4417 47.5294 81.6376 52.0133 83.5384 53.9699C83.7767 50.296 83.8115 46.6117 83.6429 42.934Z" fill="black"/>
<path opacity="0.2" d="M75.5591 171.682L75.3015 176.897H70.2744L70.532 171.682H75.5591Z" fill="black"/>
<path opacity="0.2" d="M41.247 170.442L46.3368 170.706L44.7423 175.845L39.6526 175.573L41.247 170.442Z" fill="black"/>
<path d="M64.1195 17.3738C65.2405 21.5514 65.6861 24.0649 68.2972 25.8056C72.1823 28.4236 77.0145 25.4157 77.1677 20.9805C77.2999 16.9908 75.4479 10.8149 70.9569 9.9724C69.9654 9.77622 68.9401 9.83756 67.9791 10.1505C67.018 10.4635 66.1533 11.0177 65.4674 11.7601C64.7816 12.5025 64.2975 13.4084 64.0616 14.3912C63.8256 15.374 63.8455 16.4009 64.1195 17.3738Z" fill="#9E2015"/>
<path d="M73.5817 70.7429C73.5817 70.7429 68.6243 104.101 65.9227 116.606C62.9288 130.323 46.9563 175.58 46.9563 175.58L39.1372 173.889C39.1372 173.889 49.1566 136.986 51.6701 117.853C52.6449 110.382 53.8216 98.357 55.3116 88.3098C56.7529 78.5621 58.5284 70.7499 58.5284 70.7499L73.5817 70.7429Z" fill="#263238"/>
<path d="M48.8294 172.97L47.3673 175.796L38.5803 173.889L39.3184 171.25L48.8294 172.97Z" fill="#950000"/>
<path opacity="0.6" d="M48.8294 172.97L47.3673 175.796L38.5803 173.889L39.3184 171.25L48.8294 172.97Z" fill="white"/>
<path opacity="0.6" d="M70.4487 82.6285C64.7184 83.7495 65.3242 105.118 66.0135 116.105C67.6706 108.335 70.0867 93.3929 71.7368 82.7817C71.3375 82.5851 70.883 82.531 70.4487 82.6285Z" fill="black"/>
<path d="M81.8605 70.743C81.8605 70.743 84.193 103.384 83.7195 116.697C83.2252 130.546 76.6593 175.88 76.6593 175.88H69.2649C69.2649 175.88 68.9934 131.319 68.6661 117.748C68.3041 102.918 66.5146 70.7361 66.5146 70.7361L81.8605 70.743Z" fill="#263238"/>
<path d="M78.0796 172.942C78.1145 172.942 77.6619 176.012 77.6619 176.012H68.6661L68.4224 173.269L78.0796 172.942Z" fill="#950000"/>
<path opacity="0.6" d="M78.0796 172.942C78.1145 172.942 77.6619 176.012 77.6619 176.012H68.6661L68.4224 173.269L78.0796 172.942Z" fill="white"/>
<path d="M78.8804 39.1116C78.8804 47.8707 83.5384 51.4774 83.5384 51.4774L91.1347 44.083C89.3367 41.0781 87.2895 38.2297 85.0145 35.5676C80.6211 30.5335 78.8804 33.4857 78.8804 39.1116Z" fill="#263238"/>
<path opacity="0.2" d="M76.8753 22.568C76.7204 23.007 76.4605 23.4014 76.1183 23.7169C75.7761 24.0324 75.3619 24.2595 74.9118 24.3783C74.4167 24.4793 73.9673 24.7369 73.63 25.1131C73.2927 25.4893 73.0854 25.964 73.0388 26.4671C73.9404 26.1656 74.7579 25.6552 75.4246 24.9776C76.0914 24.3 76.5884 23.4743 76.8753 22.568Z" fill="black"/>
<path d="M74.9117 9.05338C76.4713 7.08293 74.0692 6.96457 74.0692 6.96457C74.6958 4.61813 71.8829 5.87838 71.8829 5.87838C70.1979 3.55284 69.244 6.38666 69.244 6.38666C67.4964 4.41621 67.1552 7.63298 67.1552 7.63298C65.4006 5.13337 64.5094 8.74006 64.5094 8.74006C62.894 6.14297 61.9053 9.51988 61.9053 9.51988C58.5702 8.32925 60.1507 11.7967 60.1507 11.7967C57.3099 11.8733 59.5937 14.0805 59.5937 14.0805C56.182 14.0805 59.1899 16.037 59.1899 16.037C56.4814 17.8125 59.8861 18.2929 59.8861 18.2929C57.6789 21.7743 61.4736 20.4653 61.4736 20.4653C59.9349 23.8909 63.3396 22.38 63.3396 22.38C63.1238 25.6803 65.0246 24.7821 65.9437 24.1694C66.1178 24.8657 66.452 25.562 67.0647 25.6177C68.2553 25.7778 68.4572 23.5288 68.4572 23.5288C68.4572 23.5288 69.5573 24.3922 70.4834 23.9257C71.4094 23.4592 71.0613 22.2825 71.0613 22.2825C71.2623 22.4328 71.5066 22.514 71.7575 22.514C72.0085 22.514 72.2528 22.4328 72.4538 22.2825C72.8507 21.9762 72.8507 19.762 72.3494 18.9822L74.1597 18.2859C74.1597 18.2859 75.5035 18.0979 74.9047 16.3224C74.5434 15.302 74.5117 14.1938 74.8142 13.1544C76.8612 12.1936 75.1762 11.0656 75.1762 11.0656C77.5505 9.54077 74.9117 9.05338 74.9117 9.05338Z" fill="#263238"/>
<path d="M71.2422 17.527C71.5256 18.5658 72.1451 19.4815 73.0038 20.1311C74.1387 20.9805 74.9882 20.1311 74.9046 18.8569C74.835 17.7011 74.1526 15.8699 72.8994 15.5217C71.6461 15.1736 70.9428 16.2946 71.2422 17.527Z" fill="#9E2015"/>
</svg>
