<?xml version="1.0" standalone="no"?>
<!DOCTYPE svg PUBLIC "-//W3C//DTD SVG 20010904//EN"
 "http://www.w3.org/TR/2001/REC-SVG-20010904/DTD/svg10.dtd">
<svg version="1.0" xmlns="http://www.w3.org/2000/svg"
 width="263.000000pt" height="113.000000pt" viewBox="0 0 263.000000 113.000000"
 preserveAspectRatio="xMidYMid meet">

<g transform="translate(0.000000,113.000000) scale(0.100000,-0.100000)"
fill="#000000" stroke="none">
<path d="M32 573 c-1 -265 1 -488 4 -497 5 -14 46 -16 353 -16 257 0 350 3
359 12 9 9 11 130 10 493 -1 264 -4 441 -5 393 l-4 -88 -138 0 -139 0 33 -33
c57 -57 59 -129 6 -190 l-29 -33 54 -28 c34 -18 61 -41 71 -59 20 -40 13 -115
-16 -155 -25 -36 -107 -78 -171 -87 l-45 -7 51 36 c126 86 103 220 -44 263
-34 10 -62 20 -62 23 1 3 24 16 53 30 94 45 111 128 42 206 -41 46 -44 44 -78
-61 -38 -120 -25 -340 28 -478 7 -15 -1 -17 -85 -17 -81 0 -91 2 -86 16 13 33
35 161 42 234 6 77 -17 285 -37 322 -8 15 -22 18 -84 18 l-74 0 -4 93 c-1 50
-4 -125 -5 -390z"/>
<path d="M1545 770 c-3 -5 1 -10 10 -10 9 0 13 5 10 10 -3 6 -8 10 -10 10 -2
0 -7 -4 -10 -10z"/>
<path d="M830 740 c0 -5 5 -10 10 -10 6 0 10 5 10 10 0 6 -4 10 -10 10 -5 0
-10 -4 -10 -10z"/>
<path d="M860 740 c0 -5 5 -10 10 -10 6 0 10 5 10 10 0 6 -4 10 -10 10 -5 0
-10 -4 -10 -10z"/>
<path d="M1530 740 c0 -5 5 -10 10 -10 6 0 10 5 10 10 0 6 -4 10 -10 10 -5 0
-10 -4 -10 -10z"/>
<path d="M1560 740 c0 -5 5 -10 10 -10 6 0 10 5 10 10 0 6 -4 10 -10 10 -5 0
-10 -4 -10 -10z"/>
<path d="M1920 740 c0 -5 5 -10 10 -10 6 0 10 5 10 10 0 6 -4 10 -10 10 -5 0
-10 -4 -10 -10z"/>
<path d="M1950 740 c0 -5 5 -10 10 -10 6 0 10 5 10 10 0 6 -4 10 -10 10 -5 0
-10 -4 -10 -10z"/>
<path d="M1090 690 c0 -41 -3 -50 -18 -50 -15 0 -17 7 -14 38 5 42 -14 35 -20
-8 -2 -20 -9 -26 -35 -28 -32 -3 -33 -2 -33 33 0 22 -4 34 -10 30 -5 -3 -10
-19 -10 -36 0 -24 -4 -29 -25 -29 -19 0 -25 5 -25 23 0 13 -5 28 -12 35 -18
18 -56 14 -68 -7 -14 -27 -13 -37 6 -55 13 -14 49 -16 235 -16 l219 0 0 60 c0
33 -4 60 -10 60 -5 0 -10 -22 -10 -50 0 -46 -2 -50 -24 -50 -23 0 -24 3 -19
35 l6 35 -57 0 c-43 0 -56 3 -56 15 0 8 -4 15 -10 15 -5 0 -10 -22 -10 -50z
m-210 -25 c0 -18 -5 -25 -19 -25 -11 0 -23 5 -26 10 -11 18 3 40 25 40 15 0
20 -7 20 -25z m318 3 c-2 -19 -10 -24 -45 -26 -37 -3 -43 0 -43 16 0 27 8 32
52 32 35 0 39 -2 36 -22z"/>
<path d="M1300 686 c0 -30 5 -58 10 -61 6 -4 10 17 10 54 0 34 -4 61 -10 61
-5 0 -10 -24 -10 -54z"/>
<path d="M1730 729 c0 -5 5 -7 10 -4 6 3 10 8 10 11 0 2 -4 4 -10 4 -5 0 -10
-5 -10 -11z"/>
<path d="M1376 701 c5 -5 20 -11 34 -13 17 -2 25 -9 25 -23 0 -16 -8 -21 -37
-23 -21 -2 -38 -7 -38 -13 0 -5 52 -9 120 -9 l120 0 0 48 c0 34 -3 43 -10 32
-5 -8 -10 -25 -10 -37 0 -32 -18 -28 -23 5 l-4 27 -2 -27 c-1 -31 -27 -39 -34
-10 -4 16 -5 16 -6 0 -1 -13 -9 -18 -30 -18 -23 0 -28 4 -24 19 7 26 -23 51
-60 51 -19 0 -27 -4 -21 -9z"/>
<path d="M1638 704 c-5 -4 -8 -32 -8 -63 0 -39 3 -52 11 -44 5 5 9 34 7 62 -2
29 -6 49 -10 45z"/>
<path d="M1767 700 c-3 -8 -8 -31 -9 -50 -2 -27 -7 -35 -23 -35 -14 0 -21 8
-23 25 -6 41 -22 48 -22 9 0 -19 5 -40 12 -47 17 -17 53 -15 68 3 7 8 23 15
36 15 32 0 54 26 54 63 0 36 -16 26 -22 -13 -2 -19 -10 -26 -30 -28 -24 -3
-27 0 -30 35 -2 23 -6 32 -11 23z"/>
<path d="M1924 702 c-19 -13 -23 -39 -8 -61 14 -19 25 -21 112 -21 58 0 92 4
87 9 -6 5 -21 11 -35 13 -32 4 -43 48 -11 48 11 0 23 5 26 10 9 14 -39 12 -53
-2 -7 -7 -12 -22 -12 -35 0 -16 -6 -23 -20 -23 -14 0 -20 7 -20 23 0 38 -36
60 -66 39z m50 -28 c10 -27 7 -34 -18 -34 -28 0 -40 14 -32 35 7 20 42 19 50
-1z"/>
<path d="M2162 698 c-29 -29 -7 -78 35 -78 14 0 23 -6 23 -15 0 -8 5 -15 10
-15 6 0 10 7 10 15 0 13 25 15 164 15 155 0 166 1 179 21 20 27 10 58 -19 65
-30 8 -54 -11 -54 -42 0 -37 -36 -32 -43 6 -5 21 -14 31 -32 36 -35 9 -44 -3
-11 -15 16 -7 26 -18 26 -31 0 -17 -6 -20 -49 -20 -43 0 -49 2 -44 19 2 10 -3
25 -12 35 -32 31 -75 14 -75 -31 0 -32 -26 -29 -35 4 -10 42 -47 57 -73 31z
m56 -35 c3 -19 -1 -23 -21 -23 -26 0 -38 15 -29 38 8 22 47 10 50 -15z m117 2
c0 -15 -8 -21 -29 -23 -23 -3 -28 0 -22 13 3 9 6 21 6 27 0 5 10 8 23 6 14 -2
22 -10 22 -23z m240 0 c0 -14 -8 -21 -27 -23 -28 -3 -33 4 -22 33 9 23 49 15
49 -10z"/>
<path d="M940 590 c0 -5 5 -10 10 -10 6 0 10 5 10 10 0 6 -4 10 -10 10 -5 0
-10 -4 -10 -10z"/>
<path d="M970 590 c0 -5 5 -10 10 -10 6 0 10 5 10 10 0 6 -4 10 -10 10 -5 0
-10 -4 -10 -10z"/>
<path d="M1040 590 c0 -5 5 -10 10 -10 6 0 10 5 10 10 0 6 -4 10 -10 10 -5 0
-10 -4 -10 -10z"/>
<path d="M1830 590 c0 -5 5 -10 10 -10 6 0 10 5 10 10 0 6 -4 10 -10 10 -5 0
-10 -4 -10 -10z"/>
<path d="M2420 590 c0 -5 5 -10 10 -10 6 0 10 5 10 10 0 6 -4 10 -10 10 -5 0
-10 -4 -10 -10z"/>
<path d="M810 436 c0 -53 1 -56 25 -56 32 0 38 15 27 65 -6 30 -13 41 -30 43
-20 3 -22 -1 -22 -52z m40 24 c0 -5 -7 -10 -15 -10 -8 0 -15 5 -15 10 0 6 7
10 15 10 8 0 15 -4 15 -10z m3 -45 c1 -5 -6 -11 -15 -13 -11 -2 -18 3 -18 13
0 17 30 18 33 0z"/>
<path d="M890 480 c0 -5 5 -10 10 -10 6 0 10 5 10 10 0 6 -4 10 -10 10 -5 0
-10 -4 -10 -10z"/>
<path d="M1243 435 c0 -33 2 -49 4 -35 10 55 43 62 43 9 0 -16 5 -29 10 -29
11 0 13 39 4 64 -3 9 -17 16 -29 16 -14 0 -25 7 -28 18 -3 9 -5 -10 -4 -43z"/>
<path d="M1390 472 c0 -13 -8 -18 -27 -17 -25 0 -28 -3 -28 -35 0 -34 2 -35
38 -37 l37 -1 0 54 c0 30 -4 54 -10 54 -5 0 -10 -8 -10 -18z m-2 -46 c6 -29
-15 -43 -35 -24 -14 14 -14 20 -3 33 16 19 34 15 38 -9z"/>
<path d="M1485 453 c-4 -21 -9 -46 -12 -55 -2 -10 0 -18 5 -18 5 0 13 15 17
33 l7 32 11 -26 c7 -15 17 -27 22 -27 6 0 15 12 22 27 l11 26 7 -32 c4 -18 12
-33 17 -33 5 0 7 8 5 18 -3 9 -8 34 -12 55 -7 46 -22 48 -33 5 -10 -40 -24
-39 -35 2 -10 41 -25 38 -32 -7z"/>
<path d="M1780 471 c0 -14 -6 -17 -24 -14 -17 4 -27 -1 -35 -16 -18 -32 2 -62
39 -59 29 2 30 4 30 55 0 29 -2 53 -5 53 -3 0 -5 -8 -5 -19z m-9 -65 c-16 -19
-41 -10 -41 14 0 24 21 31 39 14 11 -10 12 -16 2 -28z"/>
<path d="M1820 479 c0 -5 5 -7 10 -4 6 3 10 8 10 11 0 2 -4 4 -10 4 -5 0 -10
-5 -10 -11z"/>
<path d="M2063 435 c0 -33 2 -45 4 -27 2 18 2 45 0 60 -2 15 -4 0 -4 -33z"/>
<path d="M2156 474 c-36 -36 -9 -94 44 -94 19 0 33 7 40 19 15 28 13 31 -17
30 -23 0 -24 -2 -10 -8 17 -6 17 -8 4 -20 -25 -20 -59 3 -55 37 2 22 8 27 33
29 49 2 51 3 35 13 -23 15 -57 12 -74 -6z"/>
<path d="M890 420 c0 -22 5 -40 10 -40 6 0 10 18 10 40 0 22 -4 40 -10 40 -5
0 -10 -18 -10 -40z"/>
<path d="M930 419 c0 -47 17 -52 22 -6 2 17 8 32 13 32 6 0 11 -15 13 -32 2
-18 8 -33 13 -33 6 0 9 17 7 38 -3 34 -6 37 -35 39 -32 1 -33 0 -33 -38z"/>
<path d="M1020 420 c0 -22 5 -40 10 -40 6 0 10 15 10 34 0 19 6 37 13 39 6 3
2 6 -10 6 -20 1 -23 -4 -23 -39z"/>
<path d="M1083 425 c2 -36 5 -40 27 -40 22 0 25 5 27 40 2 42 -1 39 -11 -8 -9
-37 -29 -30 -38 14 -6 34 -6 34 -5 -6z"/>
<path d="M1170 441 c0 -10 7 -21 15 -25 8 -3 15 -10 15 -17 0 -6 -7 -9 -15 -5
-8 3 -15 1 -15 -4 0 -14 37 -12 46 2 4 6 -2 19 -14 29 -25 20 -29 34 -7 25 8
-3 15 -1 15 4 0 6 -9 10 -20 10 -13 0 -20 -7 -20 -19z"/>
<path d="M1620 440 c-15 -28 4 -60 35 -60 13 0 26 4 30 9 3 6 -7 9 -21 8 -15
-1 -29 4 -31 11 -3 8 7 12 32 12 33 0 35 2 25 20 -6 12 -21 20 -35 20 -14 0
-29 -8 -35 -20z m55 0 c4 -6 -5 -10 -20 -10 -15 0 -24 4 -20 10 3 6 12 10 20
10 8 0 17 -4 20 -10z"/>
<path d="M1823 420 c0 -25 2 -35 4 -22 2 12 2 32 0 45 -2 12 -4 2 -4 -23z"/>
<path d="M1860 440 c-15 -28 4 -60 35 -60 13 0 27 5 31 11 4 7 0 9 -12 5 -11
-3 -26 -1 -34 4 -21 13 1 46 29 43 13 -2 20 1 16 7 -11 18 -54 11 -65 -10z"/>
<path d="M1960 440 c-16 -30 4 -60 40 -60 28 0 30 3 30 38 0 35 -2 38 -30 40
-20 2 -32 -4 -40 -18z m51 -34 c-16 -19 -41 -10 -41 14 0 24 21 31 39 14 11
-10 12 -16 2 -28z"/>
<path d="M2271 416 c1 -40 1 -40 8 -10 4 17 11 35 14 41 3 5 0 10 -8 10 -11 0
-15 -12 -14 -41z"/>
<path d="M2330 445 c-26 -32 13 -81 48 -59 22 14 27 41 12 59 -16 19 -44 19
-60 0z m48 -19 c6 -29 -15 -43 -35 -24 -14 14 -14 20 -3 33 16 19 34 15 38 -9z"/>
<path d="M2420 436 c0 -39 11 -56 35 -56 24 0 35 17 35 56 0 36 -18 29 -22 -8
-2 -18 -7 -33 -13 -33 -5 0 -11 15 -13 33 -4 37 -22 44 -22 8z"/>
<path d="M2521 400 c1 -30 4 -46 6 -34 3 16 10 20 28 17 30 -6 51 27 35 57 -8
14 -20 20 -40 18 -30 -2 -30 -3 -29 -58z m59 20 c0 -10 -6 -20 -12 -23 -21 -7
-38 4 -38 23 0 10 6 20 13 23 20 7 37 -4 37 -23z"/>
</g>
</svg>
