<svg width="200" height="200" viewBox="0 0 200 200" fill="none" xmlns="http://www.w3.org/2000/svg">
<rect width="200" height="200" rx="100" fill="#E4F1FE"/>
<path d="M100.288 49L58 66.6637C58 66.6637 61.0545 99.3623 65.8742 119.993C68.1025 129.532 100.288 150 100.288 150C100.288 150 132.473 129.532 134.701 119.993C139.521 99.3623 142.576 66.6637 142.576 66.6637L100.288 49Z" fill="#666666"/>
<path d="M134.689 119.993C139.509 99.3623 142.563 66.6637 142.563 66.6637L100.288 49V150C100.288 150 132.461 129.532 134.689 119.993Z" fill="#31373F"/>
<path d="M100.288 141.562C86.4172 132.336 73.9988 121.933 72.7344 118.29C69.104 102.755 66.4501 82.5999 65.4736 71.208L100.288 56.6614L135.102 71.208C134.113 82.6124 131.472 102.78 127.816 118.391C126.564 121.946 114.146 132.349 100.288 141.562Z" fill="#950000"/>
<path d="M100.288 141.562C114.159 132.349 126.577 121.946 127.816 118.391C131.472 102.792 134.113 82.6124 135.102 71.208L100.288 56.6614V141.562Z" fill="#950000"/>
<path d="M93.7406 113.475C92.614 113.475 91.4873 113.049 90.611 112.186L80.2957 101.87C78.5681 100.143 78.5681 97.3386 80.2957 95.611C82.0232 93.8834 84.8149 93.8834 86.5425 95.611L93.7281 102.797L111.242 85.2957C112.969 83.5681 115.761 83.5681 117.488 85.2957C119.216 87.0232 119.216 89.8149 117.488 91.5425L96.8578 112.186C95.994 113.049 94.8673 113.475 93.7406 113.475Z" fill="white"/>
<path d="M96.8579 112.186L117.488 91.5549C119.216 89.8273 119.216 87.0232 117.488 85.3081C115.761 83.5806 112.969 83.5806 111.242 85.3081L93.7407 102.809V113.475C94.8674 113.475 95.9941 113.049 96.8579 112.186Z" fill="#E4F1FE"/>
</svg>
